<svg xmlns="http://www.w3.org/2000/svg" viewBox="0 0 207.93 54.62"><defs><style>.cls-1{fill:#fff;}</style></defs><g id="Layer_2" data-name="Layer 2"><g id="Layer_1-2" data-name="Layer 1"><path class="cls-1" d="M10.16,12,8.09,3.89,6,12H3.38L0,.19H2.81L4.88,8.71,7.12.19h2l2.23,8.52L13.38.19h2.81L12.83,12Z"/><path class="cls-1" d="M23.1,12V6.79c0-1.19-.62-1.56-1.57-1.56a2.52,2.52,0,0,0-2,1V12H17.32V.19h2.26V4.54a4,4,0,0,1,3-1.31,2.47,2.47,0,0,1,2.78,2.69V12Z"/><path class="cls-1" d="M32.7,12v-.9A3.46,3.46,0,0,1,30,12.19a2.83,2.83,0,0,1-2.95-2.83A2.7,2.7,0,0,1,30,6.61a3.49,3.49,0,0,1,2.7,1V6.57c0-.86-.74-1.43-1.87-1.43a3.63,3.63,0,0,0-2.46,1l-.88-1.57a5.49,5.49,0,0,1,3.73-1.35c2,0,3.74.78,3.74,3.24V12Zm0-2.05V8.87a2.27,2.27,0,0,0-1.8-.76c-.89,0-1.61.48-1.61,1.29s.72,1.27,1.61,1.27A2.23,2.23,0,0,0,32.7,9.93Z"/><path class="cls-1" d="M37.63,9.84V5.41H36.22v-2h1.41V1.11h2.25V3.45h1.73v2H39.88V9.24c0,.55.28,1,.78,1a1.12,1.12,0,0,0,.77-.27l.48,1.71a2.78,2.78,0,0,1-1.87.55A2.13,2.13,0,0,1,37.63,9.84Z"/><path class="cls-1" d="M55.89,12l-.74-2H50.09l-.74,2H46.51L51.05.19h3.14L58.74,12ZM52.62,2.7,50.78,7.77h3.68Z"/><path class="cls-1" d="M58.67,6.1A6,6,0,0,1,65,0a5.36,5.36,0,0,1,4.91,2.88L67.72,3.94A3.21,3.21,0,0,0,65,2.23,3.67,3.67,0,0,0,61.25,6.1,3.67,3.67,0,0,0,65,10a3.2,3.2,0,0,0,2.76-1.72l2.15,1A5.39,5.39,0,0,1,65,12.19,6,6,0,0,1,58.67,6.1Z"/><path class="cls-1" d="M74.1,12V2.4H70.66V.19h9.39V2.4H76.63V12Z"/><path class="cls-1" d="M81.67,7.26V.19h2.54v7a2.77,2.77,0,1,0,5.53,0v-7H92.3V7.26c0,2.92-1.73,4.93-5.31,4.93S81.67,10.18,81.67,7.26Z"/><path class="cls-1" d="M102.21,12l-.75-2h-5l-.74,2H92.82L97.36.19h3.15L105.05,12ZM98.94,2.7,97.1,7.77h3.67Z"/><path class="cls-1" d="M106,12V.19h2.53V9.77h5V12Z"/><path class="cls-1" d="M115.15,12V.19h2.52V9.77h5V12Z"/><path class="cls-1" d="M125.4,12V7.16l-4.52-7h2.86l2.91,4.72L129.57.19h2.84l-4.5,7V12Z"/><path class="cls-1" d="M146.13,12V7h-5.56v5h-2.51V.19h2.51V4.82h5.56V.19h2.53V12Z"/><path class="cls-1" d="M156.05,12v-.9a3.46,3.46,0,0,1-2.7,1.11,2.83,2.83,0,0,1-2.95-2.83,2.7,2.7,0,0,1,2.95-2.75,3.49,3.49,0,0,1,2.7,1V6.57c0-.86-.74-1.43-1.87-1.43a3.63,3.63,0,0,0-2.46,1l-.88-1.57a5.49,5.49,0,0,1,3.73-1.35c2,0,3.74.78,3.74,3.24V12Zm0-2.05V8.87a2.27,2.27,0,0,0-1.8-.76c-.89,0-1.61.48-1.61,1.29s.72,1.27,1.61,1.27A2.23,2.23,0,0,0,156.05,9.93Z"/><path class="cls-1" d="M162.77,10.88v4.35h-2.25V3.45h2.25V4.52a3.29,3.29,0,0,1,2.63-1.29c2.19,0,3.78,1.63,3.78,4.47s-1.59,4.49-3.78,4.49A3.25,3.25,0,0,1,162.77,10.88Zm4.1-3.18a2.23,2.23,0,0,0-2.18-2.47,2.5,2.5,0,0,0-1.92,1v3a2.55,2.55,0,0,0,1.92,1A2.24,2.24,0,0,0,166.87,7.7Z"/><path class="cls-1" d="M173.07,10.88v4.35h-2.24V3.45h2.24V4.52a3.31,3.31,0,0,1,2.64-1.29c2.19,0,3.78,1.63,3.78,4.47s-1.59,4.49-3.78,4.49A3.28,3.28,0,0,1,173.07,10.88Zm4.1-3.18A2.22,2.22,0,0,0,175,5.23a2.52,2.52,0,0,0-1.93,1v3a2.59,2.59,0,0,0,1.93,1A2.23,2.23,0,0,0,177.17,7.7Z"/><path class="cls-1" d="M180.59,7.7A4.36,4.36,0,0,1,185,3.23c2.57,0,4.28,1.91,4.28,4.69v.53h-6.34a2.28,2.28,0,0,0,2.45,1.9,3.58,3.58,0,0,0,2.27-.83l1,1.49a5.3,5.3,0,0,1-3.51,1.18A4.32,4.32,0,0,1,180.59,7.7ZM185,5.07a2,2,0,0,0-2.08,1.82h4.2A2,2,0,0,0,185,5.07Z"/><path class="cls-1" d="M196.67,12V6.82a1.39,1.39,0,0,0-1.57-1.59,2.48,2.48,0,0,0-1.94,1V12h-2.25V3.45h2.25V4.54a4,4,0,0,1,3-1.31A2.49,2.49,0,0,1,198.93,6v6Z"/><path class="cls-1" d="M200.4,10.87l1-1.63a4.83,4.83,0,0,0,3,1.19c1,0,1.43-.38,1.43-.91,0-1.39-5.06-.24-5.06-3.6,0-1.43,1.24-2.69,3.5-2.69a5.46,5.46,0,0,1,3.43,1.17L206.73,6a3.67,3.67,0,0,0-2.53-1c-.81,0-1.34.35-1.34.83,0,1.26,5.07.2,5.07,3.64,0,1.57-1.34,2.72-3.71,2.72A5.76,5.76,0,0,1,200.4,10.87Z"/><path class="cls-1" d="M1.15,33.19V21.41H3.66V33.19Z"/><path class="cls-1" d="M6.45,33.19V26.62H5v-2H6.45V24.3a2.77,2.77,0,0,1,2.86-3.07,3,3,0,0,1,2.23.81l-.85,1.36a1.32,1.32,0,0,0-.93-.33c-.64,0-1.06.4-1.06,1.23v.36h1.73v2H8.7v6.57Z"/><path class="cls-1" d="M19.6,33.19V28.37l-4.52-7h2.86l2.92,4.71,2.91-4.71h2.85l-4.51,7v4.82Z"/><path class="cls-1" d="M24.92,28.92a4.33,4.33,0,0,1,4.51-4.47A4.32,4.32,0,0,1,34,28.92a4.33,4.33,0,0,1-4.52,4.48A4.33,4.33,0,0,1,24.92,28.92Zm6.7,0a2.2,2.2,0,1,0-4.36,0,2.2,2.2,0,1,0,4.36,0Z"/><path class="cls-1" d="M41.4,33.19V32.11a4.06,4.06,0,0,1-3,1.29,2.44,2.44,0,0,1-2.75-2.68V24.66h2.24v5.17c0,1.19.62,1.58,1.57,1.58a2.53,2.53,0,0,0,1.95-1V24.66h2.24v8.53Z"/><path class="cls-1" d="M49.9,27.31a6,6,0,0,1,6.29-6.1,5.49,5.49,0,0,1,4.86,2.64L59,25a3.37,3.37,0,0,0-2.79-1.54,3.67,3.67,0,0,0-3.71,3.87,3.68,3.68,0,0,0,3.71,3.87,3.92,3.92,0,0,0,2.49-.9V28.86H55.57V26.67h5.62V31.2a6.52,6.52,0,0,1-5,2.2A6,6,0,0,1,49.9,27.31Z"/><path class="cls-1" d="M62.59,28.92A4.35,4.35,0,0,1,67,24.45c2.56,0,4.28,1.9,4.28,4.68v.53H64.94a2.29,2.29,0,0,0,2.46,1.91,3.58,3.58,0,0,0,2.26-.83l1,1.48a5.31,5.31,0,0,1-3.52,1.18A4.31,4.31,0,0,1,62.59,28.92ZM67,26.28a2,2,0,0,0-2.08,1.82h4.2A2,2,0,0,0,67,26.28Z"/><path class="cls-1" d="M73.38,31.05V26.62H72v-2h1.42V22.33h2.24v2.33h1.73v2H75.62v3.83c0,.55.28,1,.78,1a1.12,1.12,0,0,0,.77-.27l.48,1.72a2.75,2.75,0,0,1-1.87.54A2.12,2.12,0,0,1,73.38,31.05Z"/><path class="cls-1" d="M82.67,31.53l1.38-2a5.16,5.16,0,0,0,3.75,1.61c1.39,0,2-.62,2-1.31,0-2.05-6.79-.62-6.79-5.05,0-2,1.7-3.59,4.47-3.59a6.6,6.6,0,0,1,4.6,1.64l-1.4,1.88a5,5,0,0,0-3.43-1.29c-1.06,0-1.66.46-1.66,1.16,0,1.86,6.77.6,6.77,5,0,2.16-1.55,3.78-4.72,3.78A6.83,6.83,0,0,1,82.67,31.53Z"/><path class="cls-1" d="M93.83,22.4a1.34,1.34,0,0,1,2.67,0,1.34,1.34,0,1,1-2.67,0ZM94,33.19V24.66h2.25v8.53Z"/><path class="cls-1" d="M98,28.92a4.34,4.34,0,0,1,4.53-4.47A4,4,0,0,1,105.86,26l-1.46,1.38a2.09,2.09,0,0,0-1.81-.92,2.28,2.28,0,0,0-2.31,2.48,2.29,2.29,0,0,0,2.31,2.49,2.15,2.15,0,0,0,1.81-.94l1.46,1.38a4,4,0,0,1-3.37,1.55A4.34,4.34,0,0,1,98,28.92Z"/><path class="cls-1" d="M112.86,33.19l-2.26-3.28-1,1.09v2.19h-2.25V21.41h2.25v7.05l3.23-3.8h2.76l-3.38,3.87,3.48,4.66Z"/><path class="cls-1" d="M120.8,28.92a4.52,4.52,0,0,1,9,0,4.52,4.52,0,0,1-9,0Zm6.7,0a2.2,2.2,0,1,0-4.36,0,2.2,2.2,0,1,0,4.36,0Z"/><path class="cls-1" d="M131.52,33.19V24.66h2.24v1.15a3.72,3.72,0,0,1,2.72-1.36v2.19a2.53,2.53,0,0,0-.62-.06,2.85,2.85,0,0,0-2.1,1v5.63Z"/><path class="cls-1" d="M150.55,33.19v-5H145v5h-2.51V21.41H145V26h5.57V21.41h2.53V33.19Z"/><path class="cls-1" d="M161.1,33.19V32.11a4,4,0,0,1-3,1.29,2.44,2.44,0,0,1-2.76-2.68V24.66h2.25v5.17c0,1.19.62,1.58,1.57,1.58a2.51,2.51,0,0,0,1.94-1V24.66h2.25v8.53Z"/><path class="cls-1" d="M165.58,33.19V24.66h2.24v1.15a3.72,3.72,0,0,1,2.72-1.36v2.19a2.53,2.53,0,0,0-.62-.06,2.85,2.85,0,0,0-2.1,1v5.63Z"/><path class="cls-1" d="M172.4,31.05V26.62H171v-2h1.41V22.33h2.25v2.33h1.73v2h-1.73v3.83c0,.55.28,1,.77,1a1.13,1.13,0,0,0,.78-.27l.48,1.72a2.8,2.8,0,0,1-1.88.54A2.12,2.12,0,0,1,172.4,31.05Z"/><path class="cls-1" d="M.55,50.13a4.32,4.32,0,0,1,4.5-4.47,4.48,4.48,0,1,1,0,9A4.33,4.33,0,0,1,.55,50.13Zm6.7,0a2.24,2.24,0,0,0-2.2-2.47,2.5,2.5,0,0,0,0,5A2.25,2.25,0,0,0,7.25,50.13Z"/><path class="cls-1" d="M17,54.41V49.25c0-1.19-.62-1.59-1.57-1.59a2.49,2.49,0,0,0-1.95,1v5.76H11.26V45.87H13.5V47a4,4,0,0,1,3-1.31,2.49,2.49,0,0,1,2.79,2.72v6Z"/><path class="cls-1" d="M31.16,54.41V53.5a3.47,3.47,0,0,1-2.7,1.12,2.83,2.83,0,0,1-2.95-2.83A2.71,2.71,0,0,1,28.46,49a3.44,3.44,0,0,1,2.7,1V49c0-.87-.74-1.43-1.87-1.43a3.61,3.61,0,0,0-2.46,1L26,47a5.48,5.48,0,0,1,3.73-1.34c2,0,3.74.78,3.74,3.23v5.52Zm0-2V51.3a2.24,2.24,0,0,0-1.8-.76c-.88,0-1.61.47-1.61,1.29s.73,1.27,1.61,1.27A2.26,2.26,0,0,0,31.16,52.36Z"/><path class="cls-1" d="M39.67,48.52A6,6,0,0,1,46,42.43a5.34,5.34,0,0,1,4.91,2.88l-2.16,1.06A3.17,3.17,0,0,0,46,44.65a3.87,3.87,0,0,0,0,7.74,3.18,3.18,0,0,0,2.75-1.71l2.16,1A5.39,5.39,0,0,1,46,54.62,6,6,0,0,1,39.67,48.52Z"/><path class="cls-1" d="M52.32,54.41V45.87h2.25V47a3.75,3.75,0,0,1,2.72-1.36v2.19a2.61,2.61,0,0,0-.62-.05,2.85,2.85,0,0,0-2.1,1v5.64Z"/><path class="cls-1" d="M64.45,54.41V53.33a4.1,4.1,0,0,1-3,1.29,2.44,2.44,0,0,1-2.75-2.69V45.87h2.24v5.18a1.37,1.37,0,0,0,1.57,1.57,2.53,2.53,0,0,0,2-1V45.87h2.24v8.54Z"/><path class="cls-1" d="M68.71,43.61A1.34,1.34,0,1,1,70,45,1.33,1.33,0,0,1,68.71,43.61Zm.21,10.8V45.87h2.25v8.54Z"/><path class="cls-1" d="M72.65,53.29l1-1.62a4.85,4.85,0,0,0,3,1.18c1,0,1.43-.37,1.43-.9,0-1.4-5.06-.25-5.06-3.61,0-1.43,1.24-2.68,3.5-2.68a5.4,5.4,0,0,1,3.43,1.17L79,48.42a3.69,3.69,0,0,0-2.53-1c-.81,0-1.34.35-1.34.83,0,1.25,5.07.19,5.07,3.64,0,1.57-1.34,2.72-3.71,2.72A5.75,5.75,0,0,1,72.65,53.29Z"/><path class="cls-1" d="M81.28,50.13a4.36,4.36,0,0,1,4.42-4.47c2.56,0,4.27,1.91,4.27,4.68v.53H83.63a2.29,2.29,0,0,0,2.45,1.91A3.58,3.58,0,0,0,88.35,52l1,1.48a5.31,5.31,0,0,1-3.51,1.19A4.32,4.32,0,0,1,81.28,50.13ZM85.7,47.5a2,2,0,0,0-2.09,1.82h4.21A2,2,0,0,0,85.7,47.5Z"/><path class="cls-1" d="M92.29,49.23c0-2.09,2.6-2.33,2.6-3.55,0-.55-.43-1-1.4-1a2.77,2.77,0,0,0-2.17,1.09l-1.43-1.6a5,5,0,0,1,3.87-1.72c2.28,0,3.67,1.15,3.67,2.79,0,2.58-3,2.78-3,4.26a1,1,0,0,0,.34.75l-1.95.56A2.3,2.3,0,0,1,92.29,49.23Zm0,3.94a1.43,1.43,0,1,1,1.43,1.43A1.44,1.44,0,0,1,92.29,53.17Z"/></g></g></svg>